#!OML:ASF I:\Actors\actors\Patient Classification 2\Patient 1\Session 1\actor1.ASF
:FULLY-SPECIFIED
:DEGREES

543
root -0.67612 18.1476 5.63041 1.57335 -2.53909 -2.97538
lowerback 2.74411 1.05872 1.41083
upperback -2.29987 1.4926 0.417733
thorax -3.88161 0.709973 -0.450517
lowerneck -11.444 -2.96249 -1.27725
upperneck 20.6703 -4.65826 3.59604
head 8.4268 -1.94457 0.920718
rclavicle -1.1281e-014 1.33186e-014
rhumerus -51.69 -8.29566 -83.8489
rradius 45.5992
rwrist 7.67503
rhand -3.09243 -41.9942
rfingers 7.12502
rthumb 22.6253 -70.6881
lclavicle -1.1281e-014 1.33186e-014
lhumerus -42.4865 1.80828 88.5672
lradius 36.6245
lwrist -4.12999
lhand -5.85553 -23.1056
lfingers 7.12502
lthumb 19.9712 5.88816
rfemur 10.3386 5.2335 17.5472
rtibia -8.14951
rfoot -13.7726 -14.0998
rtoes 3.55533
lfemur 13.8524 -8.35557 -11.7594
ltibia -11.7275
lfoot -7.43589 18.8769
ltoes -12.881
544
root -0.67667 18.1475 5.62989 1.59401 -2.54223 -2.95293
lowerback 2.69332 1.06295 1.391
upperback -2.30014 1.49637 0.417296
thorax -3.85353 0.71262 -0.439014
lowerneck -11.4271 -2.95937 -1.23087
upperneck 20.6799 -4.64693 3.52016
head 8.42352 -1.94334 0.889108
rclavicle 2.16178e-015 9.93923e-016
rhumerus -51.6734 -8.31207 -83.8333
rradius 45.5368
rwrist 7.7083
rhand -3.09076 -41.8579
rfingers 7.12502
rthumb 22.6269 -70.5516
lclavicle 2.16178e-015 9.93923e-016
lhumerus -42.5289 1.77048 88.6466
lradius 36.5874
lwrist -4.11014
lhand -5.98805 -23.148
lfingers 7.12502
lthumb 19.8438 5.85895
rfemur 10.3213 5.2356 17.52
rtibia -8.15779
rfoot -13.78 -14.0947
rtoes 3.67441
lfemur 13.8272 -8.37744 -11.777
ltibia -11.7302
lfoot -7.49938 18.8912
ltoes -12.5222
545
root -0.677035 18.1477 5.62939 1.61775 -2.54866 -2.93873
lowerback 2.64548 1.06645 1.3926
upperback -2.30921 1.5002 0.414022
thorax -3.83565 0.714551 -0.442591
lowerneck -11.3811 -2.95563 -1.23087
upperneck 20.672 -4.63834 3.50619
head 8.41179 -1.94142 0.886068
rclavicle -9.19379e-015 3.18055e-015
rhumerus -51.678 -8.29194 -83.8483
rradius 45.4739
rwrist 7.73142
rhand -3.18572 -41.6791
rfingers 7.12502
rthumb 22.5357 -70.3839
lclavicle -9.19379e-015 3.18055e-015
lhumerus -42.6059 1.69733 88.7334
lradius 36.625
lwrist -4.04274
lhand -5.96848 -23.1725
lfingers 7.12502
lthumb 19.8627 5.83252
rfemur 10.2972 5.24049 17.5037
rtibia -8.16851
rfoot -13.7418 -14.0875
rtoes 3.67095
lfemur 13.7945 -8.3356 -11.7834
ltibia -11.7169
lfoot -7.4888 18.8608
ltoes -12.5634
546
root -0.677673 18.1477 5.62924 1.62382 -2.5703 -2.9419
lowerback 2.62552 1.0724 1.40198
upperback -2.31212 1.50853 0.422642
thorax -3.82723 0.718623 -0.439057
lowerneck -11.3577 -2.94815 -1.31974
upperneck 20.6773 -4.63466 3.61682
head 8.41414 -1.93569 0.938555
rclavicle 2.23012e-015 -4.37326e-015
rhumerus -51.673 -8.26412 -83.8634
rradius 45.4195
rwrist 7.68874
rhand -3.32458 -41.5501
rfingers 7.12502
rthumb 22.4024 -70.2711
lclavicle 2.23012e-015 -4.37326e-015
lhumerus -42.6347 1.65572 88.8406
lradius 36.6422
lwrist -4.0244
lhand -5.84408 -23.1648
lfingers 7.12502
lthumb 19.9822 5.82782
rfemur 10.2913 5.26081 17.5114
rtibia -8.18112
rfoot -13.7157 -14.0965
rtoes 3.42747
lfemur 13.7862 -8.28371 -11.7795
ltibia -11.6898
lfoot -7.44017 18.8337
ltoes -12.9697
547
root -0.678378 18.1479 5.62828 1.63481 -2.58117 -2.94347
lowerback 2.60746 1.08014 1.39585
upperback -2.31121 1.51891 0.441666
thorax -3.81656 0.724324 -0.416251
lowerneck -11.3269 -2.93817 -1.4145
upperneck 20.6502 -4.62459 3.72631
head 8.4041 -1.92807 0.992494
rclavicle 2.2239e-015 7.15625e-015
rhumerus -51.6603 -8.2464 -83.8466
rradius 45.394
rwrist 7.63788
rhand -3.4023 -41.4605
rfingers 7.12502
rthumb 22.3278 -70.1904
lclavicle 2.2239e-015 7.15625e-015
lhumerus -42.5953 1.6738 88.9612
lradius 36.5875
lwrist -4.1082
lhand -5.76084 -23.1336
lfingers 7.12502
lthumb 20.0622 5.85057
rfemur 10.2463 5.27209 17.5077
rtibia -8.13427
rfoot -13.7897 -14.0597
rtoes 3.68488
lfemur 13.7831 -8.324 -11.7799
ltibia -11.702
lfoot -7.4637 18.8724
ltoes -12.9916
548
root -0.678888 18.1483 5.62641 1.64906 -2.57076 -2.9787
lowerback 2.58994 1.07966 1.43227
upperback -2.31293 1.52027 0.462882
thorax -3.80809 0.724379 -0.414512
lowerneck -11.2498 -2.92916 -1.44733
upperneck 20.5925 -4.61252 3.76942
head 8.37199 -1.92249 1.01483
rclavicle -1.15606e-014 -1.19271e-015
rhumerus -51.6585 -8.2114 -83.8544
rradius 45.4046
rwrist 7.62097
rhand -3.39596 -41.4162
rfingers 7.12502
rthumb 22.3339 -70.1453
lclavicle -1.15606e-014 -1.19271e-015
lhumerus -42.5997 1.64068 89.0502
lradius 36.5973
lwrist -4.22676
lhand -5.78486 -23.076
lfingers 7.12502
lthumb 20.0392 5.91059
rfemur 10.1839 5.26323 17.5373
rtibia -8.05609
rfoot -13.855 -14.0057
rtoes 4.08928
lfemur 13.7752 -8.39546 -11.7358
ltibia -11.7344
lfoot -7.52419 18.9079
ltoes -12.7707
549
root -0.679659 18.1488 5.6248 1.66145 -2.55404 -3.02727
lowerback 2.56506 1.06695 1.49898
upperback -2.31036 1.50574 0.466003
thorax -3.79004 0.715533 -0.447227
lowerneck -11.1804 -2.91465 -1.42633
upperneck 20.5379 -4.60163 3.80249
head 8.34092 -1.91423 1.02457
rclavicle -4.66523e-015 7.95139e-016
rhumerus -51.6559 -8.21974 -83.9062
rradius 45.4157
rwrist 7.69141
rhand -3.34667 -41.4632
rfingers 7.12502
rthumb 22.3812 -70.1867
lclavicle -4.66523e-015 7.95139e-016
lhumerus -42.6637 1.48436 89.1148
lradius 36.7124
lwrist -4.19662
lhand -5.78673 -23.0057
lfingers 7.12502
lthumb 20.0374 5.98117
rfemur 10.1357 5.24604 17.5934
rtibia -7.99822
rfoot -13.8417 -14.0088
rtoes 3.89753
lfemur 13.7597 -8.36166 -11.6696
ltibia -11.7473
lfoot -7.49909 18.8642
ltoes -12.9007
550
root -0.68088 18.1497 5.62355 1.66949 -2.54315 -3.03161
lowerback 2.53564 1.05583 1.51788
upperback -2.30707 1.49045 0.448665
thorax -3.76933 0.707342 -0.474103
lowerneck -11.1424 -2.90674 -1.39128
upperneck 20.5112 -4.60294 3.83117
head 8.32499 -1.91028 1.02871
rclavicle -1.45982e-015 -6.95746e-015
rhumerus -51.6474 -8.26884 -83.9632
rradius 45.4068
rwrist 7.75932
rhand -3.29489 -41.6958
rfingers 7.12502
rthumb 22.4309 -70.4133
lclavicle -1.45982e-015 -6.95746e-015
lhumerus -42.7051 1.2944 89.1975
lradius 36.8136
lwrist -4.01796
lhand -5.61173 -23.0445
lfingers 7.12502
lthumb 20.2056 5.9246
rfemur 10.1008 5.23385 17.6034
rtibia -7.95943
rfoot -13.8513 -14.0178
rtoes 3.79837
lfemur 13.7435 -8.28138 -11.6547
ltibia -11.7515
lfoot -7.40727 18.8165
ltoes -13.2143
551
root -0.681608 18.15 5.62242 1.66469 -2.54541 -3.01115
lowerback 2.51962 1.04382 1.49718
upperback -2.30887 1.47266 0.432393
thorax -3.7625 0.698865 -0.477948
lowerneck -11.1082 -2.89317 -1.33562
upperneck 20.5103 -4.59359 3.82296
head 8.31668 -1.90295 1.01819
rclavicle -1.51014e-014 -2.98177e-015
rhumerus -51.6579 -8.26445 -84.0243
rradius 45.4027
rwrist 7.75992
rhand -3.27325 -41.876
rfingers 7.12502
rthumb 22.4517 -70.591
lclavicle -1.51014e-014 -2.98177e-015
lhumerus -42.7153 1.17459 89.2746
lradius 36.8767
lwrist -3.89223
lhand -5.48102 -23.1259
lfingers 7.12502
lthumb 20.3312 5.82994
rfemur 10.099 5.23642 17.5795
rtibia -7.95019
rfoot -13.8858 -14.005
rtoes 4.07337
lfemur 13.7431 -8.28673 -11.6722
ltibia -11.7524
lfoot -7.43832 18.8207
ltoes -13.0156
552
root -0.68153 18.1498 5.62025 1.64573 -2.54678 -3.00769
lowerback 2.53104 1.02911 1.48426
upperback -2.30366 1.45269 0.43429
thorax -3.76429 0.689303 -0.467818
lowerneck -11.0812 -2.87822 -1.28293
upperneck 20.4986 -4.57834 3.80206
head 8.30564 -1.89437 1.00445
rclavicle -1.20327e-014 -4.17448e-015
rhumerus -51.646 -8.22642 -84.0752
rradius 45.3767
rwrist 7.74941
rhand -3.28073 -41.7657
rfingers 7.12502
rthumb 22.4445 -70.4816
lclavicle -1.20327e-014 -4.17448e-015
lhumerus -42.6822 1.0525 89.3898
lradius 36.9086
lwrist -3.76445
lhand -5.49048 -23.0092
lfingers 7.12502
lthumb 20.3221 5.94757
rfemur 10.1298 5.23937 17.573
rtibia -7.98955
rfoot -13.8633 -14.0113
rtoes 4.07863
lfemur 13.7463 -8.35876 -11.6789
ltibia -11.7288
lfoot -7.52733 18.869
ltoes -12.714
553
root -0.681682 18.1494 5.617 1.61111 -2.52786 -2.98895
lowerback 2.57687 1.01528 1.45049
upperback -2.29686 1.43379 0.439853
thorax -3.78445 0.680749 -0.44299
lowerneck -11.0644 -2.89113 -1.24441
upperneck 20.517 -4.59534 3.75815
head 8.30724 -1.9038 0.981809
rclavicle -2.52332e-014 -1.59028e-015
rhumerus -51.6225 -8.14737 -84.1398
rradius 45.3651
rwrist 7.67259
rhand -3.35595 -41.7427
rfingers 7.12502
rthumb 22.3723 -70.4673
lclavicle -2.52332e-014 -1.59028e-015
lhumerus -42.6176 0.95946 89.5016
lradius 36.8948
lwrist -3.72288
lhand -5.06104 -22.8198
lfingers 7.12502
lthumb 20.7348 6.09248
rfemur 10.1916 5.22119 17.5586
rtibia -8.05582
rfoot -13.8028 -14.0444
rtoes 3.75502
lfemur 13.7469 -8.38648 -11.7028
ltibia -11.6861
lfoot -7.51474 18.8946
ltoes -12.8528
